<?xml version="1.0" encoding="UTF-8" standalone="no"?>
<!DOCTYPE svg PUBLIC "-//W3C//DTD SVG 1.1//EN" "http://www.w3.org/Graphics/SVG/1.1/DTD/svg11.dtd">
<svg width="100%" height="100%" viewBox="0 0 1040 500" version="1.1" xmlns="http://www.w3.org/2000/svg" xmlns:xlink="http://www.w3.org/1999/xlink" xml:space="preserve" xmlns:serif="http://www.serif.com/" style="fill-rule:evenodd;clip-rule:evenodd;stroke-miterlimit:1.5;">
    <g id="Artboard1" transform="matrix(0.8125,0,0,0.625,0,0)">
        <rect x="0" y="0" width="1280" height="800" style="fill:none;"/>
        <clipPath id="_clip1">
            <rect x="0" y="0" width="1280" height="800"/>
        </clipPath>
        <g clip-path="url(#_clip1)">
            <g transform="matrix(1.23077,0,0,1.6,95.859,352)">
                <g transform="matrix(-0.44623,0,0,0.929695,105.74,-582.083)">
                    <rect x="-0.243" y="752.09" width="595.765" height="89.8" style="fill:white;"/>
                </g>
                <g transform="matrix(0.647587,0,0,0.647587,-26.1228,-1369.33)">
                    <g transform="matrix(0.529512,0,0,0.529512,638.705,2198.37)">
                        <path d="M1391,318.618L1431,368.618L1430.03,369.833L1391,418.618" style="fill:none;stroke:rgb(205,205,205);stroke-width:31.48px;"/>
                    </g>
                    <g transform="matrix(1.11504,0.298774,-1.06638,3.97977,321.644,-4.99188)">
                        <path d="M1391,218.618L1391,518.618" style="fill:none;stroke:rgb(205,205,205);stroke-width:7.09px;stroke-linecap:square;stroke-linejoin:round;"/>
                    </g>
                </g>
                <g transform="matrix(129.517,0,0,129.517,112.227,200.594)">
                    <path d="M0.077,-0.652L0.261,-0.652C0.311,-0.652 0.356,-0.646 0.396,-0.633C0.436,-0.62 0.47,-0.601 0.499,-0.575C0.528,-0.548 0.55,-0.515 0.565,-0.474C0.58,-0.433 0.588,-0.385 0.588,-0.329C0.588,-0.273 0.58,-0.224 0.565,-0.183C0.55,-0.142 0.528,-0.108 0.5,-0.081C0.472,-0.054 0.439,-0.033 0.4,-0.02C0.361,-0.007 0.317,0 0.269,0L0.077,0L0.077,-0.652ZM0.252,-0.119C0.28,-0.119 0.305,-0.123 0.328,-0.13C0.351,-0.137 0.37,-0.149 0.386,-0.166C0.402,-0.182 0.415,-0.203 0.424,-0.23C0.432,-0.257 0.446,-0.283 0.446,-0.322C0.446,-0.361 0.432,-0.4 0.424,-0.427C0.415,-0.453 0.402,-0.474 0.386,-0.49C0.37,-0.505 0.351,-0.516 0.328,-0.523C0.305,-0.53 0.28,-0.533 0.252,-0.533L0.224,-0.533L0.224,-0.119L0.252,-0.119Z" style="fill:white;fill-rule:nonzero;"/>
                </g>
                <g transform="matrix(129.517,0,0,129.517,186.699,200.594)">
                    <path d="M0.353,-0.27L0.338,-0.33C0.329,-0.363 0.32,-0.397 0.311,-0.434C0.302,-0.471 0.294,-0.506 0.285,-0.54L0.281,-0.54C0.273,-0.505 0.265,-0.47 0.257,-0.434C0.248,-0.397 0.239,-0.363 0.23,-0.33L0.214,-0.27L0.353,-0.27ZM0.383,-0.155L0.184,-0.155L0.144,0L-0.006,0L0.198,-0.652L0.375,-0.652L0.579,0L0.423,0L0.383,-0.155Z" style="fill:white;fill-rule:nonzero;"/>
                </g>
                <g transform="matrix(129.517,0,0,129.517,252.105,200.594)">
                    <path d="M-0.007,-0.652L0.149,-0.652L0.227,-0.348C0.237,-0.312 0.246,-0.277 0.254,-0.244C0.261,-0.21 0.27,-0.175 0.28,-0.139L0.284,-0.139C0.293,-0.175 0.302,-0.21 0.31,-0.244C0.318,-0.277 0.327,-0.312 0.336,-0.348L0.413,-0.652L0.563,-0.652L0.367,0L0.19,0L-0.007,-0.652Z" style="fill:white;fill-rule:nonzero;"/>
                </g>
                <g transform="matrix(129.517,0,0,129.517,317.641,200.594)">
                    <path d="M0.077,-0.652L0.485,-0.652L0.485,-0.528L0.224,-0.528L0.224,-0.397L0.446,-0.397L0.446,-0.274L0.224,-0.274L0.224,-0.124L0.495,-0.124L0.495,0L0.077,0L0.077,-0.652Z" style="fill:white;fill-rule:nonzero;"/>
                </g>
                <g transform="matrix(129.517,0,0,129.517,382.141,200.594)">
                    <path d="M0.337,0.012C0.294,0.012 0.255,0.004 0.22,-0.012C0.185,-0.027 0.154,-0.05 0.129,-0.08C0.104,-0.109 0.084,-0.145 0.07,-0.187C0.056,-0.229 0.049,-0.277 0.049,-0.33C0.049,-0.383 0.056,-0.43 0.07,-0.472C0.084,-0.513 0.104,-0.548 0.129,-0.577C0.154,-0.606 0.185,-0.628 0.22,-0.643C0.255,-0.658 0.294,-0.666 0.337,-0.666C0.38,-0.666 0.419,-0.658 0.454,-0.643C0.489,-0.628 0.52,-0.606 0.546,-0.577C0.571,-0.548 0.591,-0.513 0.605,-0.472C0.619,-0.43 0.626,-0.383 0.626,-0.33C0.626,-0.277 0.619,-0.229 0.605,-0.187C0.591,-0.145 0.571,-0.109 0.546,-0.08C0.52,-0.05 0.489,-0.027 0.454,-0.012C0.419,0.004 0.38,0.012 0.337,0.012ZM0.337,-0.089C0.363,-0.089 0.386,-0.095 0.407,-0.106C0.428,-0.117 0.445,-0.133 0.46,-0.155C0.475,-0.175 0.486,-0.201 0.494,-0.231C0.502,-0.26 0.506,-0.293 0.506,-0.33C0.506,-0.403 0.491,-0.461 0.461,-0.503C0.43,-0.544 0.389,-0.565 0.337,-0.565C0.285,-0.565 0.244,-0.544 0.214,-0.503C0.183,-0.461 0.168,-0.403 0.168,-0.33C0.168,-0.293 0.172,-0.26 0.18,-0.231C0.188,-0.201 0.199,-0.175 0.214,-0.155C0.229,-0.133 0.246,-0.117 0.267,-0.106C0.288,-0.095 0.311,-0.089 0.337,-0.089Z" style="fill:rgb(154,154,154);fill-rule:nonzero;"/>
                </g>
                <g transform="matrix(129.517,0,0,129.517,456.484,181.706)">
                    <path d="M0.082,-0.575L0.078,-0.688L0.196,-0.688L0.193,-0.575L0.17,-0.392L0.104,-0.392L0.082,-0.575Z" style="fill:rgb(154,154,154);fill-rule:nonzero;"/>
                </g>
                <g transform="matrix(129.517,0,0,129.517,480.444,200.594)">
                    <path d="M0.083,-0.654L0.292,-0.654C0.326,-0.654 0.357,-0.651 0.386,-0.646C0.414,-0.64 0.439,-0.631 0.46,-0.619C0.481,-0.606 0.497,-0.59 0.509,-0.569C0.52,-0.548 0.526,-0.523 0.526,-0.493C0.526,-0.462 0.517,-0.433 0.499,-0.406C0.48,-0.379 0.452,-0.361 0.414,-0.351L0.414,-0.347C0.461,-0.339 0.498,-0.322 0.523,-0.297C0.548,-0.271 0.56,-0.236 0.56,-0.192C0.56,-0.159 0.554,-0.131 0.541,-0.107C0.528,-0.083 0.511,-0.063 0.489,-0.047C0.466,-0.031 0.44,-0.019 0.409,-0.012C0.378,-0.004 0.345,0 0.309,0L0.083,0L0.083,-0.654ZM0.282,-0.383C0.328,-0.383 0.361,-0.391 0.382,-0.408C0.402,-0.425 0.412,-0.448 0.412,-0.479C0.412,-0.509 0.401,-0.531 0.38,-0.544C0.359,-0.557 0.327,-0.564 0.284,-0.564L0.199,-0.564L0.199,-0.383L0.282,-0.383ZM0.297,-0.09C0.345,-0.09 0.382,-0.099 0.408,-0.117C0.434,-0.135 0.447,-0.163 0.447,-0.2C0.447,-0.234 0.434,-0.259 0.409,-0.276C0.384,-0.292 0.346,-0.3 0.297,-0.3L0.199,-0.3L0.199,-0.09L0.297,-0.09Z" style="fill:rgb(154,154,154);fill-rule:nonzero;"/>
                </g>
                <g transform="matrix(129.517,0,0,129.517,551.29,200.594)">
                    <path d="M0.199,-0.348L0.292,-0.348C0.337,-0.348 0.371,-0.357 0.395,-0.376C0.418,-0.395 0.43,-0.423 0.43,-0.46C0.43,-0.498 0.418,-0.524 0.395,-0.539C0.371,-0.554 0.337,-0.561 0.292,-0.561L0.199,-0.561L0.199,-0.348ZM0.44,0L0.299,-0.256L0.199,-0.256L0.199,0L0.083,0L0.083,-0.654L0.304,-0.654C0.338,-0.654 0.37,-0.651 0.399,-0.644C0.428,-0.637 0.454,-0.627 0.475,-0.612C0.496,-0.596 0.513,-0.577 0.526,-0.552C0.538,-0.527 0.544,-0.497 0.544,-0.46C0.544,-0.41 0.532,-0.37 0.509,-0.339C0.485,-0.308 0.453,-0.286 0.414,-0.273L0.57,0L0.44,0Z" style="fill:rgb(154,154,154);fill-rule:nonzero;"/>
                </g>
                <g transform="matrix(129.517,0,0,129.517,622.395,200.594)">
                    <rect x="0.083" y="-0.654" width="0.116" height="0.654" style="fill:rgb(154,154,154);fill-rule:nonzero;"/>
                </g>
                <g transform="matrix(129.517,0,0,129.517,652.443,200.594)">
                    <path d="M0.083,-0.654L0.477,-0.654L0.477,-0.556L0.199,-0.556L0.199,-0.389L0.434,-0.389L0.434,-0.291L0.199,-0.291L0.199,-0.098L0.487,-0.098L0.487,0L0.083,0L0.083,-0.654Z" style="fill:rgb(154,154,154);fill-rule:nonzero;"/>
                </g>
                <g transform="matrix(129.517,0,0,129.517,715.648,200.594)">
                    <path d="M0.083,-0.654L0.202,-0.654L0.406,-0.286L0.473,-0.147L0.477,-0.147C0.474,-0.181 0.471,-0.218 0.468,-0.257C0.464,-0.296 0.462,-0.333 0.462,-0.37L0.462,-0.654L0.573,-0.654L0.573,0L0.454,0L0.25,-0.368L0.183,-0.507L0.179,-0.507C0.182,-0.472 0.185,-0.436 0.189,-0.398C0.192,-0.36 0.194,-0.323 0.194,-0.286L0.194,0L0.083,0L0.083,-0.654Z" style="fill:rgb(154,154,154);fill-rule:nonzero;"/>
                </g>
                <g transform="matrix(32.3793,0,0,32.3793,112.227,232.974)">
                    <path d="M0.076,-0.108C0.092,-0.08 0.11,-0.06 0.131,-0.048C0.151,-0.036 0.175,-0.03 0.203,-0.03C0.243,-0.03 0.273,-0.042 0.292,-0.067C0.311,-0.091 0.321,-0.13 0.321,-0.184L0.321,-0.659L0.367,-0.659L0.367,-0.179C0.367,-0.152 0.364,-0.128 0.358,-0.105C0.352,-0.082 0.343,-0.061 0.33,-0.044C0.317,-0.027 0.3,-0.013 0.279,-0.003C0.258,0.007 0.233,0.012 0.203,0.012C0.166,0.012 0.134,0.004 0.107,-0.013C0.08,-0.03 0.058,-0.054 0.041,-0.085L0.076,-0.108Z" style="fill:white;fill-rule:nonzero;"/>
                </g>
                <g transform="matrix(32.3793,0,0,32.3793,127.186,232.974)">
                    <path d="M0.065,-0.12C0.065,-0.173 0.09,-0.213 0.14,-0.241C0.19,-0.269 0.268,-0.289 0.375,-0.301C0.376,-0.319 0.375,-0.337 0.372,-0.356C0.369,-0.374 0.363,-0.39 0.355,-0.405C0.346,-0.419 0.335,-0.431 0.32,-0.44C0.305,-0.448 0.285,-0.453 0.262,-0.453C0.229,-0.453 0.2,-0.447 0.173,-0.434C0.146,-0.421 0.125,-0.409 0.109,-0.397L0.089,-0.43C0.098,-0.436 0.108,-0.443 0.121,-0.45C0.133,-0.457 0.147,-0.464 0.162,-0.47C0.177,-0.476 0.193,-0.481 0.211,-0.486C0.229,-0.49 0.248,-0.492 0.267,-0.492C0.296,-0.492 0.32,-0.487 0.339,-0.478C0.358,-0.468 0.374,-0.455 0.386,-0.438C0.398,-0.421 0.407,-0.402 0.412,-0.38C0.417,-0.357 0.419,-0.333 0.419,-0.307L0.419,0L0.382,0L0.377,-0.062L0.375,-0.062C0.35,-0.043 0.324,-0.025 0.296,-0.011C0.267,0.005 0.237,0.012 0.205,0.012C0.186,0.012 0.168,0.009 0.151,0.004C0.134,-0.001 0.119,-0.009 0.107,-0.02C0.094,-0.031 0.083,-0.044 0.076,-0.061C0.069,-0.078 0.065,-0.097 0.065,-0.12ZM0.111,-0.122C0.111,-0.087 0.121,-0.063 0.141,-0.048C0.161,-0.033 0.185,-0.026 0.212,-0.026C0.24,-0.026 0.267,-0.033 0.292,-0.046C0.317,-0.059 0.345,-0.079 0.375,-0.104L0.375,-0.267C0.326,-0.261 0.284,-0.254 0.251,-0.245C0.217,-0.236 0.19,-0.226 0.169,-0.214C0.148,-0.202 0.134,-0.188 0.125,-0.173C0.116,-0.158 0.111,-0.141 0.111,-0.122Z" style="fill:white;fill-rule:nonzero;"/>
                </g>
                <g transform="matrix(32.3793,0,0,32.3793,143.343,232.974)">
                    <path d="M0.012,-0.48L0.06,-0.48L0.168,-0.179C0.175,-0.156 0.183,-0.132 0.192,-0.109C0.201,-0.086 0.209,-0.063 0.216,-0.041L0.22,-0.041C0.228,-0.063 0.236,-0.086 0.245,-0.109C0.253,-0.132 0.261,-0.156 0.269,-0.179L0.377,-0.48L0.422,-0.48L0.244,0L0.192,0L0.012,-0.48Z" style="fill:white;fill-rule:nonzero;"/>
                </g>
                <g transform="matrix(32.3793,0,0,32.3793,156.748,232.974)">
                    <path d="M0.065,-0.12C0.065,-0.173 0.09,-0.213 0.14,-0.241C0.19,-0.269 0.268,-0.289 0.375,-0.301C0.376,-0.319 0.375,-0.337 0.372,-0.356C0.369,-0.374 0.363,-0.39 0.355,-0.405C0.346,-0.419 0.335,-0.431 0.32,-0.44C0.305,-0.448 0.285,-0.453 0.262,-0.453C0.229,-0.453 0.2,-0.447 0.173,-0.434C0.146,-0.421 0.125,-0.409 0.109,-0.397L0.089,-0.43C0.098,-0.436 0.108,-0.443 0.121,-0.45C0.133,-0.457 0.147,-0.464 0.162,-0.47C0.177,-0.476 0.193,-0.481 0.211,-0.486C0.229,-0.49 0.248,-0.492 0.267,-0.492C0.296,-0.492 0.32,-0.487 0.339,-0.478C0.358,-0.468 0.374,-0.455 0.386,-0.438C0.398,-0.421 0.407,-0.402 0.412,-0.38C0.417,-0.357 0.419,-0.333 0.419,-0.307L0.419,0L0.382,0L0.377,-0.062L0.375,-0.062C0.35,-0.043 0.324,-0.025 0.296,-0.011C0.267,0.005 0.237,0.012 0.205,0.012C0.186,0.012 0.168,0.009 0.151,0.004C0.134,-0.001 0.119,-0.009 0.107,-0.02C0.094,-0.031 0.083,-0.044 0.076,-0.061C0.069,-0.078 0.065,-0.097 0.065,-0.12ZM0.111,-0.122C0.111,-0.087 0.121,-0.063 0.141,-0.048C0.161,-0.033 0.185,-0.026 0.212,-0.026C0.24,-0.026 0.267,-0.033 0.292,-0.046C0.317,-0.059 0.345,-0.079 0.375,-0.104L0.375,-0.267C0.326,-0.261 0.284,-0.254 0.251,-0.245C0.217,-0.236 0.19,-0.226 0.169,-0.214C0.148,-0.202 0.134,-0.188 0.125,-0.173C0.116,-0.158 0.111,-0.141 0.111,-0.122Z" style="fill:white;fill-rule:nonzero;"/>
                </g>
                <g transform="matrix(32.3793,0,0,32.3793,172.906,232.974)">
                    <path d="M0.076,-0.119C0.1,-0.092 0.129,-0.07 0.162,-0.054C0.195,-0.038 0.231,-0.03 0.269,-0.03C0.32,-0.03 0.36,-0.042 0.389,-0.067C0.418,-0.091 0.433,-0.123 0.433,-0.162C0.433,-0.183 0.43,-0.2 0.424,-0.214C0.417,-0.228 0.409,-0.24 0.398,-0.251C0.387,-0.261 0.375,-0.27 0.361,-0.278C0.346,-0.285 0.331,-0.293 0.315,-0.3L0.215,-0.345C0.2,-0.351 0.185,-0.358 0.17,-0.367C0.154,-0.376 0.139,-0.387 0.127,-0.4C0.114,-0.413 0.103,-0.428 0.094,-0.446C0.085,-0.463 0.081,-0.484 0.081,-0.509C0.081,-0.533 0.086,-0.555 0.096,-0.575C0.105,-0.594 0.119,-0.611 0.136,-0.626C0.153,-0.64 0.173,-0.651 0.197,-0.659C0.22,-0.667 0.246,-0.671 0.273,-0.671C0.313,-0.671 0.349,-0.663 0.38,-0.648C0.411,-0.632 0.436,-0.613 0.456,-0.592L0.43,-0.561C0.411,-0.582 0.388,-0.598 0.362,-0.611C0.336,-0.623 0.306,-0.629 0.273,-0.629C0.229,-0.629 0.194,-0.618 0.167,-0.597C0.14,-0.576 0.127,-0.547 0.127,-0.511C0.127,-0.492 0.131,-0.475 0.138,-0.462C0.145,-0.449 0.155,-0.437 0.166,-0.428C0.177,-0.418 0.19,-0.41 0.203,-0.403C0.216,-0.396 0.229,-0.389 0.241,-0.384L0.341,-0.34C0.36,-0.332 0.377,-0.323 0.394,-0.313C0.411,-0.303 0.425,-0.291 0.438,-0.278C0.451,-0.265 0.461,-0.249 0.469,-0.231C0.476,-0.212 0.48,-0.19 0.48,-0.165C0.48,-0.14 0.475,-0.116 0.465,-0.095C0.455,-0.073 0.441,-0.054 0.423,-0.039C0.404,-0.023 0.382,-0.011 0.356,-0.002C0.33,0.008 0.301,0.012 0.269,0.012C0.221,0.012 0.178,0.003 0.141,-0.016C0.104,-0.034 0.072,-0.058 0.046,-0.087L0.076,-0.119Z" style="fill:white;fill-rule:nonzero;"/>
                </g>
                <g transform="matrix(32.3793,0,0,32.3793,189.775,232.974)">
                    <path d="M0.052,-0.239C0.052,-0.279 0.058,-0.315 0.07,-0.347C0.082,-0.378 0.098,-0.405 0.118,-0.426C0.138,-0.447 0.161,-0.464 0.188,-0.475C0.214,-0.486 0.242,-0.492 0.271,-0.492C0.304,-0.492 0.332,-0.486 0.355,-0.474C0.377,-0.462 0.396,-0.448 0.412,-0.433L0.386,-0.402C0.371,-0.417 0.354,-0.429 0.335,-0.439C0.316,-0.448 0.295,-0.453 0.272,-0.453C0.247,-0.453 0.225,-0.448 0.204,-0.438C0.183,-0.427 0.164,-0.413 0.149,-0.394C0.133,-0.375 0.121,-0.352 0.112,-0.326C0.102,-0.3 0.098,-0.271 0.098,-0.239C0.098,-0.208 0.102,-0.179 0.111,-0.153C0.119,-0.127 0.13,-0.105 0.146,-0.086C0.161,-0.067 0.179,-0.053 0.201,-0.043C0.222,-0.032 0.246,-0.027 0.272,-0.027C0.297,-0.027 0.321,-0.032 0.343,-0.043C0.364,-0.054 0.383,-0.067 0.4,-0.082L0.423,-0.052C0.402,-0.033 0.379,-0.018 0.354,-0.006C0.329,0.006 0.301,0.012 0.27,0.012C0.239,0.012 0.21,0.006 0.184,-0.005C0.157,-0.016 0.134,-0.033 0.115,-0.054C0.095,-0.075 0.08,-0.101 0.069,-0.133C0.058,-0.164 0.052,-0.199 0.052,-0.239Z" style="fill:white;fill-rule:nonzero;"/>
                </g>
                <g transform="matrix(32.3793,0,0,32.3793,204.314,232.974)">
                    <path d="M0.092,-0.48L0.13,-0.48L0.134,-0.391L0.137,-0.391C0.153,-0.421 0.173,-0.445 0.196,-0.464C0.219,-0.483 0.244,-0.492 0.273,-0.492C0.282,-0.492 0.291,-0.491 0.298,-0.49C0.305,-0.489 0.313,-0.486 0.321,-0.482L0.311,-0.442C0.303,-0.445 0.296,-0.448 0.29,-0.449C0.284,-0.45 0.276,-0.45 0.267,-0.45C0.246,-0.45 0.223,-0.441 0.2,-0.423C0.176,-0.404 0.155,-0.372 0.136,-0.327L0.136,0L0.092,0L0.092,-0.48Z" style="fill:white;fill-rule:nonzero;"/>
                </g>
                <g transform="matrix(32.3793,0,0,32.3793,214.578,232.974)">
                    <path d="M0.115,-0.596C0.104,-0.596 0.094,-0.6 0.087,-0.607C0.079,-0.614 0.075,-0.624 0.075,-0.635C0.075,-0.648 0.079,-0.658 0.087,-0.665C0.094,-0.672 0.104,-0.675 0.115,-0.675C0.126,-0.675 0.136,-0.672 0.144,-0.665C0.151,-0.658 0.155,-0.648 0.155,-0.635C0.155,-0.624 0.151,-0.614 0.144,-0.607C0.136,-0.6 0.126,-0.596 0.115,-0.596ZM0.092,-0.48L0.136,-0.48L0.136,0L0.092,0L0.092,-0.48Z" style="fill:white;fill-rule:nonzero;"/>
                </g>
                <g transform="matrix(32.3793,0,0,32.3793,221.993,232.974)">
                    <path d="M0.136,0.042L0.136,0.217L0.092,0.217L0.092,-0.48L0.13,-0.48L0.134,-0.42L0.137,-0.42C0.16,-0.439 0.186,-0.455 0.214,-0.47C0.241,-0.485 0.27,-0.492 0.3,-0.492C0.364,-0.492 0.412,-0.47 0.444,-0.426C0.476,-0.381 0.492,-0.322 0.492,-0.247C0.492,-0.206 0.486,-0.17 0.475,-0.138C0.464,-0.106 0.448,-0.079 0.429,-0.057C0.409,-0.034 0.386,-0.017 0.361,-0.006C0.335,0.006 0.308,0.012 0.28,0.012C0.257,0.012 0.234,0.007 0.21,-0.004C0.186,-0.014 0.161,-0.028 0.136,-0.047L0.136,0.042ZM0.136,-0.089C0.164,-0.066 0.19,-0.05 0.214,-0.041C0.238,-0.032 0.259,-0.027 0.278,-0.027C0.302,-0.027 0.324,-0.032 0.345,-0.043C0.366,-0.054 0.383,-0.069 0.398,-0.088C0.413,-0.107 0.424,-0.131 0.433,-0.158C0.441,-0.185 0.445,-0.214 0.445,-0.247C0.445,-0.276 0.442,-0.304 0.437,-0.329C0.431,-0.354 0.422,-0.376 0.41,-0.395C0.398,-0.413 0.382,-0.427 0.363,-0.438C0.344,-0.448 0.32,-0.453 0.293,-0.453C0.269,-0.453 0.244,-0.446 0.219,-0.433C0.193,-0.419 0.165,-0.399 0.136,-0.374L0.136,-0.089Z" style="fill:white;fill-rule:nonzero;"/>
                </g>
                <g transform="matrix(32.3793,0,0,32.3793,239.607,232.974)">
                    <path d="M0.103,-0.442L0.028,-0.442L0.028,-0.476L0.104,-0.48L0.11,-0.619L0.148,-0.619L0.148,-0.48L0.287,-0.48L0.287,-0.442L0.148,-0.442L0.148,-0.129C0.148,-0.114 0.149,-0.1 0.152,-0.088C0.154,-0.075 0.158,-0.065 0.164,-0.056C0.17,-0.047 0.178,-0.04 0.189,-0.035C0.199,-0.029 0.212,-0.027 0.229,-0.027C0.238,-0.027 0.249,-0.028 0.26,-0.032C0.271,-0.035 0.28,-0.038 0.289,-0.042L0.301,-0.006C0.287,-0.001 0.273,0.004 0.259,0.007C0.245,0.01 0.233,0.012 0.223,0.012C0.2,0.012 0.18,0.009 0.165,0.002C0.15,-0.006 0.137,-0.015 0.128,-0.028C0.119,-0.041 0.112,-0.056 0.109,-0.074C0.105,-0.092 0.103,-0.112 0.103,-0.133L0.103,-0.442Z" style="fill:white;fill-rule:nonzero;"/>
                </g>
                <g transform="matrix(32.3793,0,0,32.3793,256.153,232.974)">
                    <path d="M0.23,-0.026C0.257,-0.026 0.283,-0.033 0.308,-0.046C0.333,-0.058 0.355,-0.076 0.376,-0.097C0.341,-0.129 0.307,-0.165 0.274,-0.205C0.241,-0.245 0.212,-0.286 0.189,-0.329C0.174,-0.318 0.161,-0.306 0.148,-0.294C0.134,-0.282 0.123,-0.27 0.113,-0.257C0.103,-0.244 0.095,-0.23 0.09,-0.216C0.084,-0.201 0.081,-0.186 0.081,-0.17C0.081,-0.148 0.085,-0.128 0.093,-0.111C0.101,-0.093 0.112,-0.078 0.125,-0.066C0.138,-0.053 0.154,-0.044 0.173,-0.037C0.191,-0.029 0.21,-0.026 0.23,-0.026ZM0.168,-0.526C0.168,-0.504 0.171,-0.481 0.178,-0.458C0.185,-0.434 0.194,-0.41 0.205,-0.386C0.222,-0.398 0.238,-0.41 0.253,-0.422C0.268,-0.434 0.282,-0.447 0.294,-0.46C0.306,-0.473 0.316,-0.487 0.323,-0.502C0.33,-0.516 0.333,-0.532 0.333,-0.549C0.333,-0.56 0.332,-0.57 0.329,-0.581C0.326,-0.591 0.322,-0.6 0.317,-0.608C0.311,-0.616 0.304,-0.623 0.295,-0.628C0.286,-0.632 0.274,-0.635 0.261,-0.635C0.232,-0.635 0.209,-0.624 0.193,-0.603C0.176,-0.582 0.168,-0.556 0.168,-0.526ZM0.547,0.012C0.504,-0.003 0.457,-0.031 0.406,-0.071C0.382,-0.046 0.355,-0.026 0.326,-0.011C0.297,0.004 0.263,0.012 0.226,0.012C0.2,0.012 0.175,0.008 0.152,-0.001C0.129,-0.009 0.109,-0.021 0.092,-0.037C0.075,-0.052 0.061,-0.071 0.051,-0.093C0.041,-0.115 0.036,-0.14 0.036,-0.167C0.036,-0.189 0.04,-0.209 0.048,-0.227C0.055,-0.245 0.065,-0.262 0.078,-0.278C0.09,-0.293 0.104,-0.308 0.121,-0.322C0.137,-0.335 0.154,-0.348 0.171,-0.361C0.158,-0.389 0.147,-0.417 0.139,-0.445C0.131,-0.472 0.127,-0.499 0.127,-0.524C0.127,-0.545 0.13,-0.565 0.137,-0.583C0.144,-0.601 0.153,-0.616 0.165,-0.63C0.177,-0.643 0.191,-0.653 0.208,-0.66C0.225,-0.667 0.243,-0.671 0.263,-0.671C0.299,-0.671 0.326,-0.66 0.345,-0.637C0.364,-0.614 0.373,-0.586 0.373,-0.551C0.373,-0.53 0.369,-0.51 0.36,-0.492C0.351,-0.474 0.34,-0.457 0.326,-0.442C0.311,-0.426 0.295,-0.411 0.277,-0.397C0.258,-0.382 0.24,-0.368 0.221,-0.354C0.244,-0.312 0.272,-0.271 0.305,-0.232C0.337,-0.193 0.37,-0.158 0.404,-0.128C0.427,-0.158 0.448,-0.191 0.465,-0.228C0.482,-0.264 0.497,-0.303 0.508,-0.345L0.551,-0.345C0.538,-0.3 0.522,-0.257 0.503,-0.216C0.484,-0.174 0.461,-0.137 0.434,-0.103C0.457,-0.084 0.48,-0.069 0.501,-0.057C0.522,-0.044 0.543,-0.034 0.562,-0.027L0.547,0.012Z" style="fill:white;fill-rule:nonzero;"/>
                </g>
                <g transform="matrix(32.3793,0,0,32.3793,281.214,232.974)">
                    <path d="M0.095,-0.659L0.141,-0.659L0.141,-0.258C0.141,-0.214 0.146,-0.178 0.156,-0.149C0.165,-0.119 0.178,-0.096 0.194,-0.079C0.21,-0.061 0.229,-0.048 0.25,-0.041C0.271,-0.034 0.293,-0.03 0.316,-0.03C0.34,-0.03 0.363,-0.034 0.385,-0.041C0.406,-0.048 0.425,-0.061 0.442,-0.079C0.458,-0.096 0.471,-0.119 0.481,-0.149C0.491,-0.178 0.496,-0.214 0.496,-0.258L0.496,-0.659L0.539,-0.659L0.539,-0.253C0.539,-0.202 0.533,-0.159 0.52,-0.125C0.507,-0.091 0.491,-0.064 0.47,-0.044C0.449,-0.023 0.426,-0.009 0.399,-0.001C0.372,0.008 0.345,0.012 0.316,0.012C0.288,0.012 0.261,0.008 0.234,-0.001C0.207,-0.009 0.184,-0.023 0.163,-0.044C0.142,-0.064 0.126,-0.091 0.114,-0.125C0.101,-0.159 0.095,-0.202 0.095,-0.253L0.095,-0.659Z" style="fill:white;fill-rule:nonzero;"/>
                </g>
                <g transform="matrix(32.3793,0,0,32.3793,301.743,232.974)">
                    <rect x="0.097" y="-0.659" width="0.046" height="0.659" style="fill:white;fill-rule:nonzero;"/>
                </g>
                <g transform="matrix(32.3793,0,0,32.3793,315.957,232.974)">
                    <path d="M0.097,-0.659L0.25,-0.659C0.301,-0.659 0.345,-0.651 0.383,-0.636C0.42,-0.621 0.451,-0.599 0.476,-0.57C0.501,-0.541 0.519,-0.507 0.531,-0.467C0.543,-0.427 0.549,-0.382 0.549,-0.332C0.549,-0.282 0.543,-0.237 0.531,-0.196C0.519,-0.155 0.501,-0.12 0.476,-0.091C0.451,-0.062 0.42,-0.039 0.383,-0.024C0.346,-0.008 0.302,0 0.251,0L0.097,0L0.097,-0.659ZM0.245,-0.039C0.29,-0.039 0.328,-0.046 0.361,-0.061C0.393,-0.075 0.419,-0.095 0.44,-0.121C0.461,-0.147 0.476,-0.178 0.486,-0.214C0.496,-0.249 0.501,-0.289 0.501,-0.332C0.501,-0.375 0.496,-0.414 0.486,-0.449C0.476,-0.484 0.461,-0.515 0.44,-0.54C0.419,-0.565 0.393,-0.585 0.361,-0.599C0.328,-0.613 0.29,-0.62 0.245,-0.62L0.143,-0.62L0.143,-0.039L0.245,-0.039Z" style="fill:white;fill-rule:nonzero;"/>
                </g>
                <g transform="matrix(32.3793,0,0,32.3793,335.515,232.974)">
                    <path d="M0.052,-0.239C0.052,-0.278 0.058,-0.314 0.07,-0.345C0.081,-0.376 0.097,-0.403 0.117,-0.425C0.136,-0.446 0.159,-0.463 0.184,-0.475C0.209,-0.486 0.234,-0.492 0.261,-0.492C0.318,-0.492 0.363,-0.473 0.396,-0.434C0.429,-0.395 0.445,-0.341 0.445,-0.27L0.445,-0.252C0.445,-0.246 0.444,-0.24 0.443,-0.234L0.097,-0.234C0.098,-0.204 0.102,-0.176 0.111,-0.151C0.12,-0.125 0.132,-0.103 0.148,-0.085C0.163,-0.066 0.182,-0.052 0.204,-0.042C0.226,-0.031 0.251,-0.026 0.278,-0.026C0.304,-0.026 0.328,-0.03 0.349,-0.038C0.37,-0.045 0.389,-0.056 0.407,-0.069L0.425,-0.035C0.406,-0.024 0.385,-0.013 0.362,-0.003C0.339,0.007 0.309,0.012 0.274,0.012C0.243,0.012 0.215,0.006 0.188,-0.005C0.161,-0.016 0.137,-0.033 0.117,-0.055C0.097,-0.076 0.081,-0.102 0.07,-0.134C0.058,-0.165 0.052,-0.2 0.052,-0.239ZM0.403,-0.268C0.403,-0.33 0.39,-0.377 0.365,-0.408C0.34,-0.439 0.305,-0.454 0.262,-0.454C0.241,-0.454 0.222,-0.45 0.203,-0.441C0.184,-0.432 0.168,-0.42 0.153,-0.404C0.137,-0.388 0.125,-0.369 0.116,-0.346C0.106,-0.323 0.1,-0.297 0.097,-0.268L0.403,-0.268Z" style="fill:white;fill-rule:nonzero;"/>
                </g>
                <g transform="matrix(32.3793,0,0,32.3793,351.542,232.974)">
                    <path d="M0.012,-0.48L0.06,-0.48L0.168,-0.179C0.175,-0.156 0.183,-0.132 0.192,-0.109C0.201,-0.086 0.209,-0.063 0.216,-0.041L0.22,-0.041C0.228,-0.063 0.236,-0.086 0.245,-0.109C0.253,-0.132 0.261,-0.156 0.269,-0.179L0.377,-0.48L0.422,-0.48L0.244,0L0.192,0L0.012,-0.48Z" style="fill:white;fill-rule:nonzero;"/>
                </g>
                <g transform="matrix(32.3793,0,0,32.3793,365.595,232.974)">
                    <path d="M0.052,-0.239C0.052,-0.278 0.058,-0.314 0.07,-0.345C0.081,-0.376 0.097,-0.403 0.117,-0.425C0.136,-0.446 0.159,-0.463 0.184,-0.475C0.209,-0.486 0.234,-0.492 0.261,-0.492C0.318,-0.492 0.363,-0.473 0.396,-0.434C0.429,-0.395 0.445,-0.341 0.445,-0.27L0.445,-0.252C0.445,-0.246 0.444,-0.24 0.443,-0.234L0.097,-0.234C0.098,-0.204 0.102,-0.176 0.111,-0.151C0.12,-0.125 0.132,-0.103 0.148,-0.085C0.163,-0.066 0.182,-0.052 0.204,-0.042C0.226,-0.031 0.251,-0.026 0.278,-0.026C0.304,-0.026 0.328,-0.03 0.349,-0.038C0.37,-0.045 0.389,-0.056 0.407,-0.069L0.425,-0.035C0.406,-0.024 0.385,-0.013 0.362,-0.003C0.339,0.007 0.309,0.012 0.274,0.012C0.243,0.012 0.215,0.006 0.188,-0.005C0.161,-0.016 0.137,-0.033 0.117,-0.055C0.097,-0.076 0.081,-0.102 0.07,-0.134C0.058,-0.165 0.052,-0.2 0.052,-0.239ZM0.403,-0.268C0.403,-0.33 0.39,-0.377 0.365,-0.408C0.34,-0.439 0.305,-0.454 0.262,-0.454C0.241,-0.454 0.222,-0.45 0.203,-0.441C0.184,-0.432 0.168,-0.42 0.153,-0.404C0.137,-0.388 0.125,-0.369 0.116,-0.346C0.106,-0.323 0.1,-0.297 0.097,-0.268L0.403,-0.268Z" style="fill:white;fill-rule:nonzero;"/>
                </g>
                <g transform="matrix(32.3793,0,0,32.3793,381.234,232.974)">
                    <path d="M0.092,-0.719L0.136,-0.719L0.136,-0.058C0.136,-0.047 0.138,-0.04 0.142,-0.035C0.146,-0.029 0.151,-0.027 0.157,-0.027L0.164,-0.027C0.166,-0.027 0.17,-0.028 0.175,-0.029L0.183,0.007C0.178,0.008 0.174,0.01 0.169,0.011C0.164,0.012 0.158,0.012 0.151,0.012C0.112,0.012 0.092,-0.013 0.092,-0.064L0.092,-0.719Z" style="fill:white;fill-rule:nonzero;"/>
                </g>
                <g transform="matrix(32.3793,0,0,32.3793,388.908,232.974)">
                    <path d="M0.052,-0.239C0.052,-0.279 0.058,-0.315 0.07,-0.347C0.081,-0.378 0.097,-0.405 0.117,-0.426C0.136,-0.447 0.159,-0.464 0.185,-0.475C0.211,-0.486 0.238,-0.492 0.267,-0.492C0.296,-0.492 0.323,-0.486 0.35,-0.475C0.376,-0.464 0.399,-0.447 0.419,-0.426C0.438,-0.405 0.454,-0.378 0.466,-0.347C0.477,-0.315 0.483,-0.279 0.483,-0.239C0.483,-0.199 0.477,-0.164 0.466,-0.133C0.454,-0.101 0.438,-0.075 0.419,-0.054C0.399,-0.033 0.376,-0.016 0.35,-0.005C0.323,0.006 0.296,0.012 0.267,0.012C0.238,0.012 0.211,0.006 0.185,-0.005C0.159,-0.016 0.136,-0.033 0.117,-0.054C0.097,-0.075 0.081,-0.101 0.07,-0.133C0.058,-0.164 0.052,-0.199 0.052,-0.239ZM0.098,-0.239C0.098,-0.208 0.102,-0.179 0.111,-0.153C0.12,-0.127 0.131,-0.105 0.147,-0.086C0.162,-0.067 0.179,-0.053 0.2,-0.043C0.221,-0.032 0.243,-0.027 0.267,-0.027C0.291,-0.027 0.314,-0.032 0.335,-0.043C0.356,-0.053 0.374,-0.067 0.389,-0.086C0.404,-0.105 0.415,-0.127 0.424,-0.153C0.433,-0.179 0.437,-0.208 0.437,-0.239C0.437,-0.271 0.433,-0.3 0.424,-0.326C0.415,-0.352 0.404,-0.375 0.389,-0.394C0.374,-0.413 0.356,-0.427 0.335,-0.438C0.314,-0.448 0.291,-0.453 0.267,-0.453C0.243,-0.453 0.221,-0.448 0.2,-0.438C0.179,-0.427 0.162,-0.413 0.147,-0.394C0.131,-0.375 0.12,-0.352 0.111,-0.326C0.102,-0.3 0.098,-0.271 0.098,-0.239Z" style="fill:white;fill-rule:nonzero;"/>
                </g>
                <g transform="matrix(32.3793,0,0,32.3793,406.231,232.974)">
                    <path d="M0.136,0.042L0.136,0.217L0.092,0.217L0.092,-0.48L0.13,-0.48L0.134,-0.42L0.137,-0.42C0.16,-0.439 0.186,-0.455 0.214,-0.47C0.241,-0.485 0.27,-0.492 0.3,-0.492C0.364,-0.492 0.412,-0.47 0.444,-0.426C0.476,-0.381 0.492,-0.322 0.492,-0.247C0.492,-0.206 0.486,-0.17 0.475,-0.138C0.464,-0.106 0.448,-0.079 0.429,-0.057C0.409,-0.034 0.386,-0.017 0.361,-0.006C0.335,0.006 0.308,0.012 0.28,0.012C0.257,0.012 0.234,0.007 0.21,-0.004C0.186,-0.014 0.161,-0.028 0.136,-0.047L0.136,0.042ZM0.136,-0.089C0.164,-0.066 0.19,-0.05 0.214,-0.041C0.238,-0.032 0.259,-0.027 0.278,-0.027C0.302,-0.027 0.324,-0.032 0.345,-0.043C0.366,-0.054 0.383,-0.069 0.398,-0.088C0.413,-0.107 0.424,-0.131 0.433,-0.158C0.441,-0.185 0.445,-0.214 0.445,-0.247C0.445,-0.276 0.442,-0.304 0.437,-0.329C0.431,-0.354 0.422,-0.376 0.41,-0.395C0.398,-0.413 0.382,-0.427 0.363,-0.438C0.344,-0.448 0.32,-0.453 0.293,-0.453C0.269,-0.453 0.244,-0.446 0.219,-0.433C0.193,-0.419 0.165,-0.399 0.136,-0.374L0.136,-0.089Z" style="fill:white;fill-rule:nonzero;"/>
                </g>
                <g transform="matrix(32.3793,0,0,32.3793,423.845,232.974)">
                    <path d="M0.052,-0.239C0.052,-0.278 0.058,-0.314 0.07,-0.345C0.081,-0.376 0.097,-0.403 0.117,-0.425C0.136,-0.446 0.159,-0.463 0.184,-0.475C0.209,-0.486 0.234,-0.492 0.261,-0.492C0.318,-0.492 0.363,-0.473 0.396,-0.434C0.429,-0.395 0.445,-0.341 0.445,-0.27L0.445,-0.252C0.445,-0.246 0.444,-0.24 0.443,-0.234L0.097,-0.234C0.098,-0.204 0.102,-0.176 0.111,-0.151C0.12,-0.125 0.132,-0.103 0.148,-0.085C0.163,-0.066 0.182,-0.052 0.204,-0.042C0.226,-0.031 0.251,-0.026 0.278,-0.026C0.304,-0.026 0.328,-0.03 0.349,-0.038C0.37,-0.045 0.389,-0.056 0.407,-0.069L0.425,-0.035C0.406,-0.024 0.385,-0.013 0.362,-0.003C0.339,0.007 0.309,0.012 0.274,0.012C0.243,0.012 0.215,0.006 0.188,-0.005C0.161,-0.016 0.137,-0.033 0.117,-0.055C0.097,-0.076 0.081,-0.102 0.07,-0.134C0.058,-0.165 0.052,-0.2 0.052,-0.239ZM0.403,-0.268C0.403,-0.33 0.39,-0.377 0.365,-0.408C0.34,-0.439 0.305,-0.454 0.262,-0.454C0.241,-0.454 0.222,-0.45 0.203,-0.441C0.184,-0.432 0.168,-0.42 0.153,-0.404C0.137,-0.388 0.125,-0.369 0.116,-0.346C0.106,-0.323 0.1,-0.297 0.097,-0.268L0.403,-0.268Z" style="fill:white;fill-rule:nonzero;"/>
                </g>
                <g transform="matrix(32.3793,0,0,32.3793,439.485,232.974)">
                    <path d="M0.092,-0.48L0.13,-0.48L0.134,-0.391L0.137,-0.391C0.153,-0.421 0.173,-0.445 0.196,-0.464C0.219,-0.483 0.244,-0.492 0.273,-0.492C0.282,-0.492 0.291,-0.491 0.298,-0.49C0.305,-0.489 0.313,-0.486 0.321,-0.482L0.311,-0.442C0.303,-0.445 0.296,-0.448 0.29,-0.449C0.284,-0.45 0.276,-0.45 0.267,-0.45C0.246,-0.45 0.223,-0.441 0.2,-0.423C0.176,-0.404 0.155,-0.372 0.136,-0.327L0.136,0L0.092,0L0.092,-0.48Z" style="fill:white;fill-rule:nonzero;"/>
                </g>
            </g>
        </g>
    </g>
</svg>
